<?xml version="1.0" standalone="no"?>
<!DOCTYPE svg PUBLIC "-//W3C//DTD SVG 20010904//EN"
 "http://www.w3.org/TR/2001/REC-SVG-20010904/DTD/svg10.dtd">
<svg version="1.0" xmlns="http://www.w3.org/2000/svg"
 width="512.000000pt" height="512.000000pt" viewBox="0 0 512.000000 512.000000"
 preserveAspectRatio="xMidYMid meet">
<metadata>
Created by potrace 1.14, written by Peter Selinger 2001-2017
</metadata>
<g transform="translate(0.000000,512.000000) scale(0.100000,-0.100000)"
fill="#000000" stroke="none">
<path d="M3515 4400 c-3 -5 -26 -10 -50 -10 -24 0 -47 -4 -50 -10 -3 -5 -21
-10 -40 -10 -19 0 -37 -4 -40 -10 -3 -5 -17 -10 -30 -10 -13 0 -27 -4 -30 -10
-3 -5 -17 -10 -30 -10 -13 0 -27 -4 -30 -10 -3 -5 -16 -10 -29 -10 -13 0 -31
-9 -41 -20 -10 -11 -23 -20 -29 -20 -15 0 -106 -92 -106 -106 0 -6 -9 -19 -20
-29 -11 -10 -20 -26 -20 -36 0 -10 -9 -34 -20 -54 -25 -45 -28 -185 -5 -231
22 -45 136 -151 170 -158 17 -4 48 -12 70 -18 25 -7 159 -13 350 -15 182 -2
314 -8 319 -13 6 -6 24 -10 41 -10 36 0 75 -35 75 -68 0 -11 5 -24 10 -27 16
-10 12 -138 -5 -172 -20 -39 -129 -143 -150 -143 -10 0 -33 -14 -52 -30 -18
-17 -42 -30 -53 -30 -10 0 -22 -4 -25 -10 -3 -5 -21 -10 -40 -10 -19 0 -37 -4
-40 -10 -4 -6 -75 -10 -180 -10 -105 0 -176 -4 -180 -10 -4 -6 -55 -10 -119
-10 -97 0 -115 -3 -129 -18 -22 -24 -21 -55 1 -75 15 -14 42 -17 160 -17 83 0
143 4 147 10 4 6 72 10 170 10 98 0 166 4 170 10 3 6 21 10 40 10 19 0 37 5
40 10 3 6 15 10 25 10 11 0 35 14 53 30 19 17 43 30 52 30 22 0 200 173 220
214 17 34 21 241 5 251 -5 3 -10 15 -10 26 0 26 -18 56 -60 102 -29 31 -40 37
-75 37 -23 0 -45 4 -51 10 -5 5 -137 11 -319 13 -191 2 -325 8 -350 15 -22 6
-53 14 -70 18 -93 21 -145 151 -95 239 11 20 20 43 20 53 0 25 121 142 147
142 12 0 25 5 28 10 3 6 17 10 30 10 13 0 27 5 30 10 3 6 17 10 30 10 13 0 27
5 30 10 3 6 21 10 40 10 19 0 37 5 40 10 3 6 26 10 50 10 24 0 47 5 50 10 3 6
34 10 69 10 68 0 96 17 96 57 0 39 -30 53 -118 53 -44 0 -84 -4 -87 -10z"/>
<path d="M2525 4308 c-3 -7 -4 -769 -3 -1693 3 -1672 3 -1680 23 -1680 20 0
20 7 20 1690 0 1602 -1 1690 -18 1693 -9 2 -19 -2 -22 -10z"/>
<path d="M887 3992 c-10 -10 -17 -28 -17 -40 0 -11 -4 -24 -10 -27 -6 -4 -10
-214 -10 -599 0 -358 -4 -596 -9 -601 -13 -13 -20 -202 -27 -630 -3 -200 -9
-344 -14 -349 -6 -6 -10 -73 -10 -152 0 -85 -4 -145 -10 -149 -17 -10 -11 -71
8 -88 27 -25 55 -21 85 11 27 28 27 29 27 178 0 84 4 154 10 160 5 5 11 149
14 349 7 428 14 617 27 630 5 5 9 243 9 601 0 385 4 595 10 599 18 11 12 90
-8 108 -24 22 -55 21 -75 -1z"/>
<path d="M2024 3492 c-97 -92 -286 -228 -399 -288 -27 -15 -75 -46 -105 -70
-30 -23 -80 -53 -110 -67 -30 -13 -74 -40 -98 -60 -24 -20 -87 -66 -140 -102
-188 -128 -202 -140 -202 -170 0 -12 9 -30 20 -40 12 -11 20 -31 20 -49 0 -26
14 -44 79 -106 140 -133 234 -199 349 -244 57 -22 363 -224 473 -310 30 -25
84 -77 120 -116 35 -39 99 -108 142 -153 42 -45 77 -87 77 -93 0 -6 9 -19 20
-29 11 -10 20 -23 20 -30 0 -7 9 -20 20 -30 11 -10 20 -23 20 -30 0 -19 54
-65 76 -65 50 0 73 80 34 115 -11 10 -20 23 -20 29 0 5 -12 22 -26 37 -15 15
-32 36 -38 47 -38 65 -71 106 -101 123 -19 12 -43 35 -54 52 -21 34 -207 217
-282 278 -86 69 -384 262 -440 284 -97 38 -197 105 -275 183 -82 82 -109 125
-91 141 7 5 57 39 112 76 55 37 116 81 134 98 19 16 60 41 90 54 31 14 81 44
111 67 30 24 78 55 105 70 94 50 281 182 379 267 22 20 49 39 58 42 22 8 58
65 58 93 0 25 -30 54 -56 54 -10 0 -46 -26 -80 -58z"/>
<path d="M2967 2512 c-21 -23 -22 -50 -2 -72 8 -9 49 -86 92 -171 89 -179 173
-328 215 -382 31 -38 87 -160 88 -187 0 -8 -49 -65 -109 -125 -59 -61 -124
-135 -144 -165 -19 -30 -54 -73 -76 -95 -31 -29 -41 -47 -41 -70 0 -36 26 -65
57 -65 20 0 53 29 53 46 0 6 19 28 41 49 23 22 50 54 60 70 10 17 41 55 68 85
28 30 72 79 99 109 l48 53 37 -51 c20 -28 37 -63 37 -77 0 -34 21 -72 64 -113
20 -19 36 -40 36 -46 0 -14 152 -165 166 -165 6 0 19 -9 29 -20 33 -37 95 -13
95 36 0 21 -147 174 -168 174 -6 0 -12 6 -12 13 0 7 -16 29 -36 48 -42 40 -64
79 -64 112 0 13 -20 55 -45 91 -38 58 -43 70 -33 85 28 37 158 148 214 180 32
19 80 54 105 77 25 23 64 51 85 62 21 11 50 32 64 47 14 15 43 36 65 47 47 24
85 57 85 73 0 7 9 20 20 30 40 37 15 115 -37 115 -21 0 -53 -29 -53 -47 0 -6
-16 -24 -35 -40 -20 -15 -55 -44 -78 -64 -23 -20 -57 -44 -76 -54 -19 -9 -55
-36 -80 -59 -25 -23 -73 -58 -105 -77 -33 -18 -87 -59 -120 -89 -60 -55 -115
-95 -121 -88 -1 2 -12 25 -23 51 -12 27 -35 65 -50 85 -42 53 -127 204 -216
382 -101 203 -152 255 -199 202z"/>
</g>
</svg>
